ISO-10303-21;
HEADER;
/* Generated by software containing ST-Developer
 * from STEP Tools, Inc. (www.steptools.com) 
 */

FILE_DESCRIPTION(
/* description */ (''),
/* implementation_level */ '2;1');

FILE_NAME(
/* name */ '5b288691-1e5f-476a-bb1d-f0c6b1a11ce1.stp',
/* time_stamp */ '2026-09-13T21:41:26Z',
/* author */ (''),
/* organization */ (''),
/* preprocessor_version */ 'ST-DEVELOPER v20.2',
/* originating_system */ 'Autodesk Translation Framework v15.15.0.0',
/* authorisation */ '');

FILE_SCHEMA (('AUTOMOTIVE_DESIGN { 1 0 10303 214 3 1 1 }'));
ENDSEC;

DATA;
#10=MECHANICAL_DESIGN_GEOMETRIC_PRESENTATION_REPRESENTATION('',(#13),#869);
#11=SHAPE_REPRESENTATION_RELATIONSHIP('SRR','None',#876,#12);
#12=ADVANCED_BREP_SHAPE_REPRESENTATION('',(#14),#868);
#13=STYLED_ITEM('',(#885),#14);
#14=MANIFOLD_SOLID_BREP('Body18',#533);
#15=CYLINDRICAL_SURFACE('',#553,1.25);
#16=CYLINDRICAL_SURFACE('',#564,2.7);
#17=CYLINDRICAL_SURFACE('',#577,1.25);
#18=FACE_BOUND('',#58,.T.);
#19=FACE_BOUND('',#59,.T.);
#20=CIRCLE('',#551,1.25);
#21=CIRCLE('',#552,1.25);
#22=CIRCLE('',#554,1.25);
#23=CIRCLE('',#565,2.7);
#24=CIRCLE('',#566,2.7);
#25=CIRCLE('',#578,1.25);
#26=FACE_OUTER_BOUND('',#54,.T.);
#27=FACE_OUTER_BOUND('',#55,.T.);
#28=FACE_OUTER_BOUND('',#56,.T.);
#29=FACE_OUTER_BOUND('',#57,.T.);
#30=FACE_OUTER_BOUND('',#60,.T.);
#31=FACE_OUTER_BOUND('',#61,.T.);
#32=FACE_OUTER_BOUND('',#62,.T.);
#33=FACE_OUTER_BOUND('',#63,.T.);
#34=FACE_OUTER_BOUND('',#64,.T.);
#35=FACE_OUTER_BOUND('',#65,.T.);
#36=FACE_OUTER_BOUND('',#66,.T.);
#37=FACE_OUTER_BOUND('',#67,.T.);
#38=FACE_OUTER_BOUND('',#68,.T.);
#39=FACE_OUTER_BOUND('',#69,.T.);
#40=FACE_OUTER_BOUND('',#70,.T.);
#41=FACE_OUTER_BOUND('',#71,.T.);
#42=FACE_OUTER_BOUND('',#72,.T.);
#43=FACE_OUTER_BOUND('',#73,.T.);
#44=FACE_OUTER_BOUND('',#74,.T.);
#45=FACE_OUTER_BOUND('',#75,.T.);
#46=FACE_OUTER_BOUND('',#76,.T.);
#47=FACE_OUTER_BOUND('',#77,.T.);
#48=FACE_OUTER_BOUND('',#78,.T.);
#49=FACE_OUTER_BOUND('',#79,.T.);
#50=FACE_OUTER_BOUND('',#80,.T.);
#51=FACE_OUTER_BOUND('',#81,.T.);
#52=FACE_OUTER_BOUND('',#82,.T.);
#53=FACE_OUTER_BOUND('',#83,.T.);
#54=EDGE_LOOP('',(#336,#337,#338,#339));
#55=EDGE_LOOP('',(#340,#341,#342,#343));
#56=EDGE_LOOP('',(#344,#345,#346,#347));
#57=EDGE_LOOP('',(#348,#349,#350,#351,#352,#353,#354,#355));
#58=EDGE_LOOP('',(#356));
#59=EDGE_LOOP('',(#357));
#60=EDGE_LOOP('',(#358,#359,#360,#361));
#61=EDGE_LOOP('',(#362));
#62=EDGE_LOOP('',(#363,#364,#365,#366));
#63=EDGE_LOOP('',(#367,#368,#369,#370));
#64=EDGE_LOOP('',(#371,#372,#373,#374));
#65=EDGE_LOOP('',(#375,#376,#377,#378));
#66=EDGE_LOOP('',(#379,#380,#381,#382));
#67=EDGE_LOOP('',(#383,#384,#385,#386));
#68=EDGE_LOOP('',(#387,#388,#389,#390));
#69=EDGE_LOOP('',(#391,#392,#393,#394));
#70=EDGE_LOOP('',(#395,#396,#397,#398));
#71=EDGE_LOOP('',(#399,#400,#401,#402));
#72=EDGE_LOOP('',(#403,#404,#405,#406));
#73=EDGE_LOOP('',(#407,#408,#409,#410));
#74=EDGE_LOOP('',(#411,#412,#413,#414));
#75=EDGE_LOOP('',(#415,#416,#417,#418));
#76=EDGE_LOOP('',(#419,#420,#421,#422));
#77=EDGE_LOOP('',(#423,#424,#425,#426,#427,#428));
#78=EDGE_LOOP('',(#429,#430,#431,#432,#433,#434));
#79=EDGE_LOOP('',(#435,#436,#437,#438));
#80=EDGE_LOOP('',(#439,#440,#441,#442,#443,#444,#445,#446,#447,#448,#449,
#450,#451,#452,#453,#454,#455,#456));
#81=EDGE_LOOP('',(#457,#458,#459,#460));
#82=EDGE_LOOP('',(#461,#462,#463,#464,#465,#466,#467,#468,#469,#470,#471,
#472,#473,#474,#475,#476,#477,#478));
#83=EDGE_LOOP('',(#479));
#84=LINE('',#721,#150);
#85=LINE('',#723,#151);
#86=LINE('',#725,#152);
#87=LINE('',#726,#153);
#88=LINE('',#729,#154);
#89=LINE('',#731,#155);
#90=LINE('',#732,#156);
#91=LINE('',#735,#157);
#92=LINE('',#737,#158);
#93=LINE('',#738,#159);
#94=LINE('',#741,#160);
#95=LINE('',#743,#161);
#96=LINE('',#745,#162);
#97=LINE('',#747,#163);
#98=LINE('',#748,#164);
#99=LINE('',#756,#165);
#100=LINE('',#760,#166);
#101=LINE('',#762,#167);
#102=LINE('',#763,#168);
#103=LINE('',#766,#169);
#104=LINE('',#767,#170);
#105=LINE('',#770,#171);
#106=LINE('',#771,#172);
#107=LINE('',#775,#173);
#108=LINE('',#777,#174);
#109=LINE('',#779,#175);
#110=LINE('',#780,#176);
#111=LINE('',#783,#177);
#112=LINE('',#785,#178);
#113=LINE('',#786,#179);
#114=LINE('',#789,#180);
#115=LINE('',#791,#181);
#116=LINE('',#792,#182);
#117=LINE('',#795,#183);
#118=LINE('',#797,#184);
#119=LINE('',#798,#185);
#120=LINE('',#801,#186);
#121=LINE('',#803,#187);
#122=LINE('',#804,#188);
#123=LINE('',#810,#189);
#124=LINE('',#813,#190);
#125=LINE('',#815,#191);
#126=LINE('',#816,#192);
#127=LINE('',#819,#193);
#128=LINE('',#821,#194);
#129=LINE('',#822,#195);
#130=LINE('',#825,#196);
#131=LINE('',#827,#197);
#132=LINE('',#828,#198);
#133=LINE('',#831,#199);
#134=LINE('',#833,#200);
#135=LINE('',#834,#201);
#136=LINE('',#837,#202);
#137=LINE('',#839,#203);
#138=LINE('',#840,#204);
#139=LINE('',#843,#205);
#140=LINE('',#845,#206);
#141=LINE('',#846,#207);
#142=LINE('',#848,#208);
#143=LINE('',#849,#209);
#144=LINE('',#852,#210);
#145=LINE('',#854,#211);
#146=LINE('',#855,#212);
#147=LINE('',#857,#213);
#148=LINE('',#858,#214);
#149=LINE('',#863,#215);
#150=VECTOR('',#585,10.);
#151=VECTOR('',#586,10.);
#152=VECTOR('',#587,10.);
#153=VECTOR('',#588,10.);
#154=VECTOR('',#591,10.);
#155=VECTOR('',#592,10.);
#156=VECTOR('',#593,10.);
#157=VECTOR('',#596,10.);
#158=VECTOR('',#597,10.);
#159=VECTOR('',#598,10.);
#160=VECTOR('',#601,10.);
#161=VECTOR('',#602,10.);
#162=VECTOR('',#603,10.);
#163=VECTOR('',#604,10.);
#164=VECTOR('',#605,10.);
#165=VECTOR('',#614,1.25);
#166=VECTOR('',#619,10.);
#167=VECTOR('',#620,10.);
#168=VECTOR('',#621,10.);
#169=VECTOR('',#624,10.);
#170=VECTOR('',#625,10.);
#171=VECTOR('',#628,10.);
#172=VECTOR('',#629,10.);
#173=VECTOR('',#632,10.);
#174=VECTOR('',#633,10.);
#175=VECTOR('',#634,10.);
#176=VECTOR('',#635,10.);
#177=VECTOR('',#638,10.);
#178=VECTOR('',#639,10.);
#179=VECTOR('',#640,10.);
#180=VECTOR('',#643,10.);
#181=VECTOR('',#644,10.);
#182=VECTOR('',#645,10.);
#183=VECTOR('',#648,10.);
#184=VECTOR('',#649,10.);
#185=VECTOR('',#650,10.);
#186=VECTOR('',#653,10.);
#187=VECTOR('',#654,10.);
#188=VECTOR('',#655,10.);
#189=VECTOR('',#662,10.);
#190=VECTOR('',#665,10.);
#191=VECTOR('',#666,10.);
#192=VECTOR('',#667,10.);
#193=VECTOR('',#670,10.);
#194=VECTOR('',#671,10.);
#195=VECTOR('',#672,10.);
#196=VECTOR('',#675,10.);
#197=VECTOR('',#676,10.);
#198=VECTOR('',#677,10.);
#199=VECTOR('',#680,10.);
#200=VECTOR('',#681,10.);
#201=VECTOR('',#682,10.);
#202=VECTOR('',#685,10.);
#203=VECTOR('',#686,10.);
#204=VECTOR('',#687,10.);
#205=VECTOR('',#690,10.);
#206=VECTOR('',#691,10.);
#207=VECTOR('',#692,10.);
#208=VECTOR('',#695,10.);
#209=VECTOR('',#696,10.);
#210=VECTOR('',#699,10.);
#211=VECTOR('',#700,10.);
#212=VECTOR('',#701,10.);
#213=VECTOR('',#704,10.);
#214=VECTOR('',#705,10.);
#215=VECTOR('',#712,1.25);
#216=VERTEX_POINT('',#719);
#217=VERTEX_POINT('',#720);
#218=VERTEX_POINT('',#722);
#219=VERTEX_POINT('',#724);
#220=VERTEX_POINT('',#728);
#221=VERTEX_POINT('',#730);
#222=VERTEX_POINT('',#734);
#223=VERTEX_POINT('',#736);
#224=VERTEX_POINT('',#740);
#225=VERTEX_POINT('',#742);
#226=VERTEX_POINT('',#744);
#227=VERTEX_POINT('',#746);
#228=VERTEX_POINT('',#749);
#229=VERTEX_POINT('',#751);
#230=VERTEX_POINT('',#754);
#231=VERTEX_POINT('',#759);
#232=VERTEX_POINT('',#761);
#233=VERTEX_POINT('',#765);
#234=VERTEX_POINT('',#769);
#235=VERTEX_POINT('',#773);
#236=VERTEX_POINT('',#774);
#237=VERTEX_POINT('',#776);
#238=VERTEX_POINT('',#778);
#239=VERTEX_POINT('',#782);
#240=VERTEX_POINT('',#784);
#241=VERTEX_POINT('',#788);
#242=VERTEX_POINT('',#790);
#243=VERTEX_POINT('',#794);
#244=VERTEX_POINT('',#796);
#245=VERTEX_POINT('',#800);
#246=VERTEX_POINT('',#802);
#247=VERTEX_POINT('',#806);
#248=VERTEX_POINT('',#808);
#249=VERTEX_POINT('',#812);
#250=VERTEX_POINT('',#814);
#251=VERTEX_POINT('',#818);
#252=VERTEX_POINT('',#820);
#253=VERTEX_POINT('',#824);
#254=VERTEX_POINT('',#826);
#255=VERTEX_POINT('',#830);
#256=VERTEX_POINT('',#832);
#257=VERTEX_POINT('',#836);
#258=VERTEX_POINT('',#838);
#259=VERTEX_POINT('',#842);
#260=VERTEX_POINT('',#844);
#261=VERTEX_POINT('',#851);
#262=VERTEX_POINT('',#853);
#263=VERTEX_POINT('',#861);
#264=EDGE_CURVE('',#216,#217,#84,.T.);
#265=EDGE_CURVE('',#217,#218,#85,.T.);
#266=EDGE_CURVE('',#219,#218,#86,.T.);
#267=EDGE_CURVE('',#216,#219,#87,.T.);
#268=EDGE_CURVE('',#220,#216,#88,.T.);
#269=EDGE_CURVE('',#221,#219,#89,.T.);
#270=EDGE_CURVE('',#220,#221,#90,.T.);
#271=EDGE_CURVE('',#220,#222,#91,.T.);
#272=EDGE_CURVE('',#223,#221,#92,.T.);
#273=EDGE_CURVE('',#222,#223,#93,.T.);
#274=EDGE_CURVE('',#218,#224,#94,.T.);
#275=EDGE_CURVE('',#225,#224,#95,.T.);
#276=EDGE_CURVE('',#226,#225,#96,.T.);
#277=EDGE_CURVE('',#227,#226,#97,.T.);
#278=EDGE_CURVE('',#227,#223,#98,.T.);
#279=EDGE_CURVE('',#228,#228,#20,.T.);
#280=EDGE_CURVE('',#229,#229,#21,.T.);
#281=EDGE_CURVE('',#230,#230,#22,.T.);
#282=EDGE_CURVE('',#230,#229,#99,.T.);
#283=EDGE_CURVE('',#226,#231,#100,.T.);
#284=EDGE_CURVE('',#232,#231,#101,.T.);
#285=EDGE_CURVE('',#227,#232,#102,.T.);
#286=EDGE_CURVE('',#225,#233,#103,.T.);
#287=EDGE_CURVE('',#231,#233,#104,.T.);
#288=EDGE_CURVE('',#224,#234,#105,.T.);
#289=EDGE_CURVE('',#233,#234,#106,.T.);
#290=EDGE_CURVE('',#235,#236,#107,.T.);
#291=EDGE_CURVE('',#235,#237,#108,.T.);
#292=EDGE_CURVE('',#238,#237,#109,.T.);
#293=EDGE_CURVE('',#236,#238,#110,.T.);
#294=EDGE_CURVE('',#239,#236,#111,.T.);
#295=EDGE_CURVE('',#240,#238,#112,.T.);
#296=EDGE_CURVE('',#239,#240,#113,.T.);
#297=EDGE_CURVE('',#239,#241,#114,.T.);
#298=EDGE_CURVE('',#242,#240,#115,.T.);
#299=EDGE_CURVE('',#241,#242,#116,.T.);
#300=EDGE_CURVE('',#241,#243,#117,.T.);
#301=EDGE_CURVE('',#244,#242,#118,.T.);
#302=EDGE_CURVE('',#243,#244,#119,.T.);
#303=EDGE_CURVE('',#243,#245,#120,.T.);
#304=EDGE_CURVE('',#246,#244,#121,.T.);
#305=EDGE_CURVE('',#245,#246,#122,.T.);
#306=EDGE_CURVE('',#247,#245,#23,.T.);
#307=EDGE_CURVE('',#248,#246,#24,.T.);
#308=EDGE_CURVE('',#247,#248,#123,.T.);
#309=EDGE_CURVE('',#247,#249,#124,.T.);
#310=EDGE_CURVE('',#250,#248,#125,.T.);
#311=EDGE_CURVE('',#249,#250,#126,.T.);
#312=EDGE_CURVE('',#251,#249,#127,.T.);
#313=EDGE_CURVE('',#252,#250,#128,.T.);
#314=EDGE_CURVE('',#251,#252,#129,.T.);
#315=EDGE_CURVE('',#253,#251,#130,.T.);
#316=EDGE_CURVE('',#254,#252,#131,.T.);
#317=EDGE_CURVE('',#253,#254,#132,.T.);
#318=EDGE_CURVE('',#253,#255,#133,.T.);
#319=EDGE_CURVE('',#256,#254,#134,.T.);
#320=EDGE_CURVE('',#255,#256,#135,.T.);
#321=EDGE_CURVE('',#255,#257,#136,.T.);
#322=EDGE_CURVE('',#258,#256,#137,.T.);
#323=EDGE_CURVE('',#257,#258,#138,.T.);
#324=EDGE_CURVE('',#257,#259,#139,.T.);
#325=EDGE_CURVE('',#260,#258,#140,.T.);
#326=EDGE_CURVE('',#259,#260,#141,.T.);
#327=EDGE_CURVE('',#259,#217,#142,.T.);
#328=EDGE_CURVE('',#234,#260,#143,.T.);
#329=EDGE_CURVE('',#222,#261,#144,.T.);
#330=EDGE_CURVE('',#262,#232,#145,.T.);
#331=EDGE_CURVE('',#261,#262,#146,.T.);
#332=EDGE_CURVE('',#261,#235,#147,.T.);
#333=EDGE_CURVE('',#237,#262,#148,.T.);
#334=EDGE_CURVE('',#263,#263,#25,.T.);
#335=EDGE_CURVE('',#263,#228,#149,.T.);
#336=ORIENTED_EDGE('',*,*,#264,.T.);
#337=ORIENTED_EDGE('',*,*,#265,.T.);
#338=ORIENTED_EDGE('',*,*,#266,.F.);
#339=ORIENTED_EDGE('',*,*,#267,.F.);
#340=ORIENTED_EDGE('',*,*,#268,.T.);
#341=ORIENTED_EDGE('',*,*,#267,.T.);
#342=ORIENTED_EDGE('',*,*,#269,.F.);
#343=ORIENTED_EDGE('',*,*,#270,.F.);
#344=ORIENTED_EDGE('',*,*,#271,.F.);
#345=ORIENTED_EDGE('',*,*,#270,.T.);
#346=ORIENTED_EDGE('',*,*,#272,.F.);
#347=ORIENTED_EDGE('',*,*,#273,.F.);
#348=ORIENTED_EDGE('',*,*,#272,.T.);
#349=ORIENTED_EDGE('',*,*,#269,.T.);
#350=ORIENTED_EDGE('',*,*,#266,.T.);
#351=ORIENTED_EDGE('',*,*,#274,.T.);
#352=ORIENTED_EDGE('',*,*,#275,.F.);
#353=ORIENTED_EDGE('',*,*,#276,.F.);
#354=ORIENTED_EDGE('',*,*,#277,.F.);
#355=ORIENTED_EDGE('',*,*,#278,.T.);
#356=ORIENTED_EDGE('',*,*,#279,.F.);
#357=ORIENTED_EDGE('',*,*,#280,.F.);
#358=ORIENTED_EDGE('',*,*,#281,.F.);
#359=ORIENTED_EDGE('',*,*,#282,.T.);
#360=ORIENTED_EDGE('',*,*,#280,.T.);
#361=ORIENTED_EDGE('',*,*,#282,.F.);
#362=ORIENTED_EDGE('',*,*,#281,.T.);
#363=ORIENTED_EDGE('',*,*,#277,.T.);
#364=ORIENTED_EDGE('',*,*,#283,.T.);
#365=ORIENTED_EDGE('',*,*,#284,.F.);
#366=ORIENTED_EDGE('',*,*,#285,.F.);
#367=ORIENTED_EDGE('',*,*,#276,.T.);
#368=ORIENTED_EDGE('',*,*,#286,.T.);
#369=ORIENTED_EDGE('',*,*,#287,.F.);
#370=ORIENTED_EDGE('',*,*,#283,.F.);
#371=ORIENTED_EDGE('',*,*,#275,.T.);
#372=ORIENTED_EDGE('',*,*,#288,.T.);
#373=ORIENTED_EDGE('',*,*,#289,.F.);
#374=ORIENTED_EDGE('',*,*,#286,.F.);
#375=ORIENTED_EDGE('',*,*,#290,.F.);
#376=ORIENTED_EDGE('',*,*,#291,.T.);
#377=ORIENTED_EDGE('',*,*,#292,.F.);
#378=ORIENTED_EDGE('',*,*,#293,.F.);
#379=ORIENTED_EDGE('',*,*,#294,.T.);
#380=ORIENTED_EDGE('',*,*,#293,.T.);
#381=ORIENTED_EDGE('',*,*,#295,.F.);
#382=ORIENTED_EDGE('',*,*,#296,.F.);
#383=ORIENTED_EDGE('',*,*,#297,.F.);
#384=ORIENTED_EDGE('',*,*,#296,.T.);
#385=ORIENTED_EDGE('',*,*,#298,.F.);
#386=ORIENTED_EDGE('',*,*,#299,.F.);
#387=ORIENTED_EDGE('',*,*,#300,.F.);
#388=ORIENTED_EDGE('',*,*,#299,.T.);
#389=ORIENTED_EDGE('',*,*,#301,.F.);
#390=ORIENTED_EDGE('',*,*,#302,.F.);
#391=ORIENTED_EDGE('',*,*,#303,.F.);
#392=ORIENTED_EDGE('',*,*,#302,.T.);
#393=ORIENTED_EDGE('',*,*,#304,.F.);
#394=ORIENTED_EDGE('',*,*,#305,.F.);
#395=ORIENTED_EDGE('',*,*,#306,.T.);
#396=ORIENTED_EDGE('',*,*,#305,.T.);
#397=ORIENTED_EDGE('',*,*,#307,.F.);
#398=ORIENTED_EDGE('',*,*,#308,.F.);
#399=ORIENTED_EDGE('',*,*,#309,.F.);
#400=ORIENTED_EDGE('',*,*,#308,.T.);
#401=ORIENTED_EDGE('',*,*,#310,.F.);
#402=ORIENTED_EDGE('',*,*,#311,.F.);
#403=ORIENTED_EDGE('',*,*,#312,.T.);
#404=ORIENTED_EDGE('',*,*,#311,.T.);
#405=ORIENTED_EDGE('',*,*,#313,.F.);
#406=ORIENTED_EDGE('',*,*,#314,.F.);
#407=ORIENTED_EDGE('',*,*,#315,.T.);
#408=ORIENTED_EDGE('',*,*,#314,.T.);
#409=ORIENTED_EDGE('',*,*,#316,.F.);
#410=ORIENTED_EDGE('',*,*,#317,.F.);
#411=ORIENTED_EDGE('',*,*,#318,.F.);
#412=ORIENTED_EDGE('',*,*,#317,.T.);
#413=ORIENTED_EDGE('',*,*,#319,.F.);
#414=ORIENTED_EDGE('',*,*,#320,.F.);
#415=ORIENTED_EDGE('',*,*,#321,.F.);
#416=ORIENTED_EDGE('',*,*,#320,.T.);
#417=ORIENTED_EDGE('',*,*,#322,.F.);
#418=ORIENTED_EDGE('',*,*,#323,.F.);
#419=ORIENTED_EDGE('',*,*,#324,.F.);
#420=ORIENTED_EDGE('',*,*,#323,.T.);
#421=ORIENTED_EDGE('',*,*,#325,.F.);
#422=ORIENTED_EDGE('',*,*,#326,.F.);
#423=ORIENTED_EDGE('',*,*,#327,.F.);
#424=ORIENTED_EDGE('',*,*,#326,.T.);
#425=ORIENTED_EDGE('',*,*,#328,.F.);
#426=ORIENTED_EDGE('',*,*,#288,.F.);
#427=ORIENTED_EDGE('',*,*,#274,.F.);
#428=ORIENTED_EDGE('',*,*,#265,.F.);
#429=ORIENTED_EDGE('',*,*,#329,.F.);
#430=ORIENTED_EDGE('',*,*,#273,.T.);
#431=ORIENTED_EDGE('',*,*,#278,.F.);
#432=ORIENTED_EDGE('',*,*,#285,.T.);
#433=ORIENTED_EDGE('',*,*,#330,.F.);
#434=ORIENTED_EDGE('',*,*,#331,.F.);
#435=ORIENTED_EDGE('',*,*,#332,.F.);
#436=ORIENTED_EDGE('',*,*,#331,.T.);
#437=ORIENTED_EDGE('',*,*,#333,.F.);
#438=ORIENTED_EDGE('',*,*,#291,.F.);
#439=ORIENTED_EDGE('',*,*,#333,.T.);
#440=ORIENTED_EDGE('',*,*,#330,.T.);
#441=ORIENTED_EDGE('',*,*,#284,.T.);
#442=ORIENTED_EDGE('',*,*,#287,.T.);
#443=ORIENTED_EDGE('',*,*,#289,.T.);
#444=ORIENTED_EDGE('',*,*,#328,.T.);
#445=ORIENTED_EDGE('',*,*,#325,.T.);
#446=ORIENTED_EDGE('',*,*,#322,.T.);
#447=ORIENTED_EDGE('',*,*,#319,.T.);
#448=ORIENTED_EDGE('',*,*,#316,.T.);
#449=ORIENTED_EDGE('',*,*,#313,.T.);
#450=ORIENTED_EDGE('',*,*,#310,.T.);
#451=ORIENTED_EDGE('',*,*,#307,.T.);
#452=ORIENTED_EDGE('',*,*,#304,.T.);
#453=ORIENTED_EDGE('',*,*,#301,.T.);
#454=ORIENTED_EDGE('',*,*,#298,.T.);
#455=ORIENTED_EDGE('',*,*,#295,.T.);
#456=ORIENTED_EDGE('',*,*,#292,.T.);
#457=ORIENTED_EDGE('',*,*,#334,.F.);
#458=ORIENTED_EDGE('',*,*,#335,.T.);
#459=ORIENTED_EDGE('',*,*,#279,.T.);
#460=ORIENTED_EDGE('',*,*,#335,.F.);
#461=ORIENTED_EDGE('',*,*,#332,.T.);
#462=ORIENTED_EDGE('',*,*,#290,.T.);
#463=ORIENTED_EDGE('',*,*,#294,.F.);
#464=ORIENTED_EDGE('',*,*,#297,.T.);
#465=ORIENTED_EDGE('',*,*,#300,.T.);
#466=ORIENTED_EDGE('',*,*,#303,.T.);
#467=ORIENTED_EDGE('',*,*,#306,.F.);
#468=ORIENTED_EDGE('',*,*,#309,.T.);
#469=ORIENTED_EDGE('',*,*,#312,.F.);
#470=ORIENTED_EDGE('',*,*,#315,.F.);
#471=ORIENTED_EDGE('',*,*,#318,.T.);
#472=ORIENTED_EDGE('',*,*,#321,.T.);
#473=ORIENTED_EDGE('',*,*,#324,.T.);
#474=ORIENTED_EDGE('',*,*,#327,.T.);
#475=ORIENTED_EDGE('',*,*,#264,.F.);
#476=ORIENTED_EDGE('',*,*,#268,.F.);
#477=ORIENTED_EDGE('',*,*,#271,.T.);
#478=ORIENTED_EDGE('',*,*,#329,.T.);
#479=ORIENTED_EDGE('',*,*,#334,.T.);
#480=PLANE('',#547);
#481=PLANE('',#548);
#482=PLANE('',#549);
#483=PLANE('',#550);
#484=PLANE('',#555);
#485=PLANE('',#556);
#486=PLANE('',#557);
#487=PLANE('',#558);
#488=PLANE('',#559);
#489=PLANE('',#560);
#490=PLANE('',#561);
#491=PLANE('',#562);
#492=PLANE('',#563);
#493=PLANE('',#567);
#494=PLANE('',#568);
#495=PLANE('',#569);
#496=PLANE('',#570);
#497=PLANE('',#571);
#498=PLANE('',#572);
#499=PLANE('',#573);
#500=PLANE('',#574);
#501=PLANE('',#575);
#502=PLANE('',#576);
#503=PLANE('',#579);
#504=PLANE('',#580);
#505=ADVANCED_FACE('',(#26),#480,.T.);
#506=ADVANCED_FACE('',(#27),#481,.T.);
#507=ADVANCED_FACE('',(#28),#482,.T.);
#508=ADVANCED_FACE('',(#29,#18,#19),#483,.F.);
#509=ADVANCED_FACE('',(#30),#15,.T.);
#510=ADVANCED_FACE('',(#31),#484,.F.);
#511=ADVANCED_FACE('',(#32),#485,.T.);
#512=ADVANCED_FACE('',(#33),#486,.T.);
#513=ADVANCED_FACE('',(#34),#487,.T.);
#514=ADVANCED_FACE('',(#35),#488,.T.);
#515=ADVANCED_FACE('',(#36),#489,.T.);
#516=ADVANCED_FACE('',(#37),#490,.T.);
#517=ADVANCED_FACE('',(#38),#491,.T.);
#518=ADVANCED_FACE('',(#39),#492,.T.);
#519=ADVANCED_FACE('',(#40),#16,.F.);
#520=ADVANCED_FACE('',(#41),#493,.T.);
#521=ADVANCED_FACE('',(#42),#494,.T.);
#522=ADVANCED_FACE('',(#43),#495,.T.);
#523=ADVANCED_FACE('',(#44),#496,.T.);
#524=ADVANCED_FACE('',(#45),#497,.T.);
#525=ADVANCED_FACE('',(#46),#498,.T.);
#526=ADVANCED_FACE('',(#47),#499,.T.);
#527=ADVANCED_FACE('',(#48),#500,.T.);
#528=ADVANCED_FACE('',(#49),#501,.T.);
#529=ADVANCED_FACE('',(#50),#502,.F.);
#530=ADVANCED_FACE('',(#51),#17,.T.);
#531=ADVANCED_FACE('',(#52),#503,.T.);
#532=ADVANCED_FACE('',(#53),#504,.F.);
#533=CLOSED_SHELL('',(#505,#506,#507,#508,#509,#510,#511,#512,#513,#514,
#515,#516,#517,#518,#519,#520,#521,#522,#523,#524,#525,#526,#527,#528,#529,
#530,#531,#532));
#534=DERIVED_UNIT_ELEMENT(#536,1.);
#535=DERIVED_UNIT_ELEMENT(#871,-3.);
#536=(
MASS_UNIT()
NAMED_UNIT(*)
SI_UNIT(.KILO.,.GRAM.)
);
#537=DERIVED_UNIT((#534,#535));
#538=MEASURE_REPRESENTATION_ITEM('density measure',
POSITIVE_RATIO_MEASURE(7850.),#537);
#539=PROPERTY_DEFINITION_REPRESENTATION(#544,#541);
#540=PROPERTY_DEFINITION_REPRESENTATION(#545,#542);
#541=REPRESENTATION('material name',(#543),#868);
#542=REPRESENTATION('density',(#538),#868);
#543=DESCRIPTIVE_REPRESENTATION_ITEM('Steel','Steel');
#544=PROPERTY_DEFINITION('material property','material name',#878);
#545=PROPERTY_DEFINITION('material property','density of part',#878);
#546=AXIS2_PLACEMENT_3D('',#717,#581,#582);
#547=AXIS2_PLACEMENT_3D('',#718,#583,#584);
#548=AXIS2_PLACEMENT_3D('',#727,#589,#590);
#549=AXIS2_PLACEMENT_3D('',#733,#594,#595);
#550=AXIS2_PLACEMENT_3D('',#739,#599,#600);
#551=AXIS2_PLACEMENT_3D('',#750,#606,#607);
#552=AXIS2_PLACEMENT_3D('',#752,#608,#609);
#553=AXIS2_PLACEMENT_3D('',#753,#610,#611);
#554=AXIS2_PLACEMENT_3D('',#755,#612,#613);
#555=AXIS2_PLACEMENT_3D('',#757,#615,#616);
#556=AXIS2_PLACEMENT_3D('',#758,#617,#618);
#557=AXIS2_PLACEMENT_3D('',#764,#622,#623);
#558=AXIS2_PLACEMENT_3D('',#768,#626,#627);
#559=AXIS2_PLACEMENT_3D('',#772,#630,#631);
#560=AXIS2_PLACEMENT_3D('',#781,#636,#637);
#561=AXIS2_PLACEMENT_3D('',#787,#641,#642);
#562=AXIS2_PLACEMENT_3D('',#793,#646,#647);
#563=AXIS2_PLACEMENT_3D('',#799,#651,#652);
#564=AXIS2_PLACEMENT_3D('',#805,#656,#657);
#565=AXIS2_PLACEMENT_3D('',#807,#658,#659);
#566=AXIS2_PLACEMENT_3D('',#809,#660,#661);
#567=AXIS2_PLACEMENT_3D('',#811,#663,#664);
#568=AXIS2_PLACEMENT_3D('',#817,#668,#669);
#569=AXIS2_PLACEMENT_3D('',#823,#673,#674);
#570=AXIS2_PLACEMENT_3D('',#829,#678,#679);
#571=AXIS2_PLACEMENT_3D('',#835,#683,#684);
#572=AXIS2_PLACEMENT_3D('',#841,#688,#689);
#573=AXIS2_PLACEMENT_3D('',#847,#693,#694);
#574=AXIS2_PLACEMENT_3D('',#850,#697,#698);
#575=AXIS2_PLACEMENT_3D('',#856,#702,#703);
#576=AXIS2_PLACEMENT_3D('',#859,#706,#707);
#577=AXIS2_PLACEMENT_3D('',#860,#708,#709);
#578=AXIS2_PLACEMENT_3D('',#862,#710,#711);
#579=AXIS2_PLACEMENT_3D('',#864,#713,#714);
#580=AXIS2_PLACEMENT_3D('',#865,#715,#716);
#581=DIRECTION('axis',(0.,0.,1.));
#582=DIRECTION('refdir',(1.,0.,0.));
#583=DIRECTION('center_axis',(-1.,0.,2.26391318235147E-15));
#584=DIRECTION('ref_axis',(-2.26391318235147E-15,0.,-1.));
#585=DIRECTION('',(-2.26391318235147E-15,0.,-1.));
#586=DIRECTION('',(0.,-1.,0.));
#587=DIRECTION('',(-2.26391318235147E-15,0.,-1.));
#588=DIRECTION('',(0.,-1.,0.));
#589=DIRECTION('center_axis',(0.,0.,-1.));
#590=DIRECTION('ref_axis',(1.,0.,0.));
#591=DIRECTION('',(1.,0.,0.));
#592=DIRECTION('',(1.,0.,0.));
#593=DIRECTION('',(0.,-1.,0.));
#594=DIRECTION('center_axis',(1.,0.,-1.81113054588118E-15));
#595=DIRECTION('ref_axis',(1.81113054588118E-15,0.,1.));
#596=DIRECTION('',(-1.81113054588118E-15,0.,-1.));
#597=DIRECTION('',(1.81113054588118E-15,0.,1.));
#598=DIRECTION('',(0.,-1.,0.));
#599=DIRECTION('center_axis',(0.,1.,0.));
#600=DIRECTION('ref_axis',(1.,0.,0.));
#601=DIRECTION('',(1.,0.,4.1895208476421E-16));
#602=DIRECTION('',(4.60100714722403E-16,0.,-1.));
#603=DIRECTION('',(1.,0.,-4.03472934448876E-16));
#604=DIRECTION('',(-9.20201429444805E-16,0.,1.));
#605=DIRECTION('',(1.,0.,-4.1895208476421E-16));
#606=DIRECTION('center_axis',(0.,-1.,0.));
#607=DIRECTION('ref_axis',(1.,0.,0.));
#608=DIRECTION('center_axis',(0.,-1.,0.));
#609=DIRECTION('ref_axis',(1.,0.,0.));
#610=DIRECTION('center_axis',(0.,-1.,0.));
#611=DIRECTION('ref_axis',(1.,0.,0.));
#612=DIRECTION('center_axis',(0.,-1.,0.));
#613=DIRECTION('ref_axis',(1.,0.,0.));
#614=DIRECTION('',(0.,1.,0.));
#615=DIRECTION('center_axis',(0.,1.,0.));
#616=DIRECTION('ref_axis',(1.,0.,0.));
#617=DIRECTION('center_axis',(1.,0.,9.20201429444805E-16));
#618=DIRECTION('ref_axis',(-9.20201429444805E-16,0.,1.));
#619=DIRECTION('',(0.,-1.,0.));
#620=DIRECTION('',(-9.20201429444805E-16,0.,1.));
#621=DIRECTION('',(0.,-1.,0.));
#622=DIRECTION('center_axis',(-4.03472934448876E-16,0.,-1.));
#623=DIRECTION('ref_axis',(1.,0.,-4.03472934448876E-16));
#624=DIRECTION('',(0.,-1.,0.));
#625=DIRECTION('',(1.,0.,-4.03472934448876E-16));
#626=DIRECTION('center_axis',(-1.,0.,-4.60100714722403E-16));
#627=DIRECTION('ref_axis',(4.60100714722403E-16,0.,-1.));
#628=DIRECTION('',(0.,-1.,0.));
#629=DIRECTION('',(4.60100714722403E-16,0.,-1.));
#630=DIRECTION('center_axis',(-6.66133814775094E-15,0.,1.));
#631=DIRECTION('ref_axis',(-1.,0.,-6.66133814775094E-15));
#632=DIRECTION('',(1.,0.,6.66133814775094E-15));
#633=DIRECTION('',(0.,-1.,0.));
#634=DIRECTION('',(-1.,0.,-6.66133814775094E-15));
#635=DIRECTION('',(0.,-1.,0.));
#636=DIRECTION('center_axis',(1.,0.,4.51834951882329E-15));
#637=DIRECTION('ref_axis',(-4.51834951882329E-15,0.,1.));
#638=DIRECTION('',(-4.51834951882329E-15,0.,1.));
#639=DIRECTION('',(-4.51834951882329E-15,0.,1.));
#640=DIRECTION('',(0.,-1.,0.));
#641=DIRECTION('center_axis',(-3.70074341541719E-15,0.,-1.));
#642=DIRECTION('ref_axis',(1.,0.,-3.70074341541719E-15));
#643=DIRECTION('',(-1.,0.,3.70074341541719E-15));
#644=DIRECTION('',(1.,0.,-3.70074341541719E-15));
#645=DIRECTION('',(0.,-1.,0.));
#646=DIRECTION('center_axis',(1.,0.,-2.46716227694479E-15));
#647=DIRECTION('ref_axis',(2.46716227694479E-15,0.,1.));
#648=DIRECTION('',(-2.46716227694479E-15,0.,-1.));
#649=DIRECTION('',(2.46716227694479E-15,0.,1.));
#650=DIRECTION('',(0.,-1.,0.));
#651=DIRECTION('center_axis',(1.23698174641427E-15,0.,1.));
#652=DIRECTION('ref_axis',(-1.,0.,1.23698174641427E-15));
#653=DIRECTION('',(1.,0.,-1.23698174641427E-15));
#654=DIRECTION('',(-1.,0.,1.23698174641427E-15));
#655=DIRECTION('',(0.,-1.,0.));
#656=DIRECTION('center_axis',(0.,-1.,0.));
#657=DIRECTION('ref_axis',(-1.13078271026636E-15,0.,-1.));
#658=DIRECTION('center_axis',(0.,1.,0.));
#659=DIRECTION('ref_axis',(0.745355992499935,0.,0.666666666666661));
#660=DIRECTION('center_axis',(0.,1.,0.));
#661=DIRECTION('ref_axis',(0.745355992499935,0.,0.666666666666661));
#662=DIRECTION('',(0.,-1.,0.));
#663=DIRECTION('center_axis',(-2.05737666500721E-15,0.,1.));
#664=DIRECTION('ref_axis',(-1.,0.,-2.05737666500721E-15));
#665=DIRECTION('',(1.,0.,2.05737666500721E-15));
#666=DIRECTION('',(-1.,0.,-2.05737666500721E-15));
#667=DIRECTION('',(0.,-1.,0.));
#668=DIRECTION('center_axis',(-1.,0.,-1.2335811384724E-15));
#669=DIRECTION('ref_axis',(1.2335811384724E-15,0.,-1.));
#670=DIRECTION('',(1.2335811384724E-15,0.,-1.));
#671=DIRECTION('',(1.2335811384724E-15,0.,-1.));
#672=DIRECTION('',(0.,-1.,0.));
#673=DIRECTION('center_axis',(0.,0.,-1.));
#674=DIRECTION('ref_axis',(1.,0.,0.));
#675=DIRECTION('',(1.,0.,0.));
#676=DIRECTION('',(1.,0.,0.));
#677=DIRECTION('',(0.,-1.,0.));
#678=DIRECTION('center_axis',(-1.,0.,-3.0982968129074E-15));
#679=DIRECTION('ref_axis',(3.0982968129074E-15,0.,-1.));
#680=DIRECTION('',(-3.0982968129074E-15,0.,1.));
#681=DIRECTION('',(3.0982968129074E-15,0.,-1.));
#682=DIRECTION('',(0.,-1.,0.));
#683=DIRECTION('center_axis',(-1.77635683940025E-15,0.,1.));
#684=DIRECTION('ref_axis',(-1.,0.,-1.77635683940025E-15));
#685=DIRECTION('',(1.,0.,1.77635683940025E-15));
#686=DIRECTION('',(-1.,0.,-1.77635683940025E-15));
#687=DIRECTION('',(0.,-1.,0.));
#688=DIRECTION('center_axis',(1.,0.,7.40148683083436E-16));
#689=DIRECTION('ref_axis',(-7.40148683083436E-16,0.,1.));
#690=DIRECTION('',(7.40148683083436E-16,0.,-1.));
#691=DIRECTION('',(-7.40148683083436E-16,0.,1.));
#692=DIRECTION('',(0.,-1.,0.));
#693=DIRECTION('center_axis',(4.1895208476421E-16,0.,-1.));
#694=DIRECTION('ref_axis',(1.,0.,4.1895208476421E-16));
#695=DIRECTION('',(-1.,0.,-4.1895208476421E-16));
#696=DIRECTION('',(1.,0.,4.1895208476421E-16));
#697=DIRECTION('center_axis',(-4.1895208476421E-16,0.,-1.));
#698=DIRECTION('ref_axis',(1.,0.,-4.1895208476421E-16));
#699=DIRECTION('',(-1.,0.,4.1895208476421E-16));
#700=DIRECTION('',(1.,0.,-4.1895208476421E-16));
#701=DIRECTION('',(0.,-1.,0.));
#702=DIRECTION('center_axis',(-1.,0.,-6.47630097698008E-16));
#703=DIRECTION('ref_axis',(6.47630097698008E-16,0.,-1.));
#704=DIRECTION('',(-6.47630097698008E-16,0.,1.));
#705=DIRECTION('',(6.47630097698008E-16,0.,-1.));
#706=DIRECTION('center_axis',(0.,1.,0.));
#707=DIRECTION('ref_axis',(1.,0.,0.));
#708=DIRECTION('center_axis',(0.,-1.,0.));
#709=DIRECTION('ref_axis',(1.,0.,0.));
#710=DIRECTION('center_axis',(0.,-1.,0.));
#711=DIRECTION('ref_axis',(1.,0.,0.));
#712=DIRECTION('',(0.,1.,0.));
#713=DIRECTION('center_axis',(0.,1.,0.));
#714=DIRECTION('ref_axis',(1.,0.,0.));
#715=DIRECTION('center_axis',(0.,1.,0.));
#716=DIRECTION('ref_axis',(1.,0.,0.));
#717=CARTESIAN_POINT('',(0.,0.,0.));
#718=CARTESIAN_POINT('Origin',(1.39999999999999,0.,-10.674));
#719=CARTESIAN_POINT('',(1.39999999999999,0.,-10.674));
#720=CARTESIAN_POINT('',(1.39999999999999,0.,-11.9));
#721=CARTESIAN_POINT('',(1.39999999999999,0.,-10.674));
#722=CARTESIAN_POINT('',(1.39999999999999,-2.4,-11.9));
#723=CARTESIAN_POINT('',(1.39999999999999,0.,-11.9));
#724=CARTESIAN_POINT('',(1.39999999999999,-2.4,-10.674));
#725=CARTESIAN_POINT('',(1.39999999999999,-2.4,-10.674));
#726=CARTESIAN_POINT('',(1.39999999999999,0.,-10.674));
#727=CARTESIAN_POINT('Origin',(-1.40000000000001,0.,-10.674));
#728=CARTESIAN_POINT('',(-1.40000000000001,0.,-10.674));
#729=CARTESIAN_POINT('',(-1.40000000000001,0.,-10.674));
#730=CARTESIAN_POINT('',(-1.40000000000001,-2.4,-10.674));
#731=CARTESIAN_POINT('',(-1.40000000000001,-2.4,-10.674));
#732=CARTESIAN_POINT('',(-1.40000000000001,0.,-10.674));
#733=CARTESIAN_POINT('Origin',(-1.40000000000001,0.,-11.9));
#734=CARTESIAN_POINT('',(-1.40000000000001,0.,-11.9));
#735=CARTESIAN_POINT('',(-1.40000000000001,0.,-10.674));
#736=CARTESIAN_POINT('',(-1.40000000000001,-2.4,-11.9));
#737=CARTESIAN_POINT('',(-1.40000000000001,-2.4,-10.674));
#738=CARTESIAN_POINT('',(-1.40000000000001,0.,-11.9));
#739=CARTESIAN_POINT('Origin',(2.22044604925031E-15,-2.4,-9.487));
#740=CARTESIAN_POINT('',(8.25500000000001,-2.4,-11.9));
#741=CARTESIAN_POINT('',(12.,-2.4,-11.9));
#742=CARTESIAN_POINT('',(8.255,-2.4,-7.074));
#743=CARTESIAN_POINT('',(8.255,-2.4,-8.2805));
#744=CARTESIAN_POINT('',(-8.255,-2.4,-7.074));
#745=CARTESIAN_POINT('',(-4.1275,-2.4,-7.074));
#746=CARTESIAN_POINT('',(-8.255,-2.4,-11.9));
#747=CARTESIAN_POINT('',(-8.255,-2.4,-10.6935));
#748=CARTESIAN_POINT('',(-1.40000000000001,-2.4,-11.9));
#749=CARTESIAN_POINT('',(-6.965,-2.4,-9.614));
#750=CARTESIAN_POINT('Origin',(-5.715,-2.4,-9.614));
#751=CARTESIAN_POINT('',(4.46500000000001,-2.4,-9.614));
#752=CARTESIAN_POINT('Origin',(5.71500000000001,-2.4,-9.614));
#753=CARTESIAN_POINT('Origin',(5.71500000000001,0.,-9.614));
#754=CARTESIAN_POINT('',(4.46500000000001,-4.,-9.614));
#755=CARTESIAN_POINT('Origin',(5.71500000000001,-4.,-9.614));
#756=CARTESIAN_POINT('',(4.46500000000001,0.,-9.614));
#757=CARTESIAN_POINT('Origin',(5.71500000000001,-4.,-9.614));
#758=CARTESIAN_POINT('Origin',(-8.255,0.,-11.9));
#759=CARTESIAN_POINT('',(-8.255,-4.,-7.074));
#760=CARTESIAN_POINT('',(-8.255,0.,-7.074));
#761=CARTESIAN_POINT('',(-8.255,-4.,-11.9));
#762=CARTESIAN_POINT('',(-8.255,-4.,-11.9));
#763=CARTESIAN_POINT('',(-8.255,0.,-11.9));
#764=CARTESIAN_POINT('Origin',(-8.255,0.,-7.074));
#765=CARTESIAN_POINT('',(8.255,-4.,-7.074));
#766=CARTESIAN_POINT('',(8.255,0.,-7.074));
#767=CARTESIAN_POINT('',(8.255,-4.,-7.074));
#768=CARTESIAN_POINT('Origin',(8.255,0.,-7.074));
#769=CARTESIAN_POINT('',(8.255,-4.,-11.9));
#770=CARTESIAN_POINT('',(8.25500000000001,0.,-11.9));
#771=CARTESIAN_POINT('',(8.25500000000001,-4.,-11.9));
#772=CARTESIAN_POINT('Origin',(-7.00000000000003,0.,12.1));
#773=CARTESIAN_POINT('',(-12.,0.,12.1));
#774=CARTESIAN_POINT('',(-7.00000000000003,0.,12.1));
#775=CARTESIAN_POINT('',(-12.,0.,12.1));
#776=CARTESIAN_POINT('',(-12.,-4.,12.1));
#777=CARTESIAN_POINT('',(-12.,0.,12.1));
#778=CARTESIAN_POINT('',(-7.00000000000003,-4.,12.1));
#779=CARTESIAN_POINT('',(-12.,-4.,12.1));
#780=CARTESIAN_POINT('',(-7.00000000000003,0.,12.1));
#781=CARTESIAN_POINT('Origin',(-6.99999999999999,0.,3.49999999999999));
#782=CARTESIAN_POINT('',(-6.99999999999999,0.,3.49999999999999));
#783=CARTESIAN_POINT('',(-6.99999999999999,0.,3.49999999999999));
#784=CARTESIAN_POINT('',(-6.99999999999999,-4.,3.49999999999999));
#785=CARTESIAN_POINT('',(-6.99999999999999,-4.,3.49999999999999));
#786=CARTESIAN_POINT('',(-6.99999999999999,0.,3.49999999999999));
#787=CARTESIAN_POINT('Origin',(-8.79999999999999,0.,3.5));
#788=CARTESIAN_POINT('',(-8.79999999999999,0.,3.5));
#789=CARTESIAN_POINT('',(-6.99999999999999,0.,3.49999999999999));
#790=CARTESIAN_POINT('',(-8.79999999999999,-4.,3.5));
#791=CARTESIAN_POINT('',(-6.99999999999999,-4.,3.49999999999999));
#792=CARTESIAN_POINT('',(-8.79999999999999,0.,3.5));
#793=CARTESIAN_POINT('Origin',(-8.8,0.,-0.100000000000001));
#794=CARTESIAN_POINT('',(-8.8,0.,-0.100000000000001));
#795=CARTESIAN_POINT('',(-8.79999999999999,0.,3.5));
#796=CARTESIAN_POINT('',(-8.8,-4.,-0.1));
#797=CARTESIAN_POINT('',(-8.79999999999999,-4.,3.5));
#798=CARTESIAN_POINT('',(-8.8,0.,-0.100000000000001));
#799=CARTESIAN_POINT('Origin',(-2.01246117974982,0.,-0.100000000000009));
#800=CARTESIAN_POINT('',(-2.01246117974982,0.,-0.100000000000009));
#801=CARTESIAN_POINT('',(-8.8,0.,-0.100000000000001));
#802=CARTESIAN_POINT('',(-2.01246117974982,-4.,-0.100000000000009));
#803=CARTESIAN_POINT('',(-8.8,-4.,-0.100000000000001));
#804=CARTESIAN_POINT('',(-2.01246117974982,0.,-0.100000000000009));
#805=CARTESIAN_POINT('Origin',(0.,0.,-1.9));
#806=CARTESIAN_POINT('',(2.01246117974982,0.,-0.100000000000014));
#807=CARTESIAN_POINT('Origin',(0.,0.,-1.9));
#808=CARTESIAN_POINT('',(2.01246117974982,-4.,-0.100000000000013));
#809=CARTESIAN_POINT('Origin',(0.,-4.,-1.9));
#810=CARTESIAN_POINT('',(2.01246117974982,0.,-0.100000000000014));
#811=CARTESIAN_POINT('Origin',(8.8,0.,-0.1));
#812=CARTESIAN_POINT('',(8.8,0.,-0.1));
#813=CARTESIAN_POINT('',(2.01246117974982,0.,-0.100000000000014));
#814=CARTESIAN_POINT('',(8.8,-4.,-0.1));
#815=CARTESIAN_POINT('',(2.01246117974982,-4.,-0.100000000000014));
#816=CARTESIAN_POINT('',(8.8,0.,-0.1));
#817=CARTESIAN_POINT('Origin',(8.8,0.,3.5));
#818=CARTESIAN_POINT('',(8.8,0.,3.5));
#819=CARTESIAN_POINT('',(8.8,0.,3.5));
#820=CARTESIAN_POINT('',(8.8,-4.,3.5));
#821=CARTESIAN_POINT('',(8.8,-4.,3.5));
#822=CARTESIAN_POINT('',(8.8,0.,3.5));
#823=CARTESIAN_POINT('Origin',(7.,0.,3.5));
#824=CARTESIAN_POINT('',(7.,0.,3.5));
#825=CARTESIAN_POINT('',(7.,0.,3.5));
#826=CARTESIAN_POINT('',(7.,-4.,3.5));
#827=CARTESIAN_POINT('',(7.,-4.,3.5));
#828=CARTESIAN_POINT('',(7.,0.,3.5));
#829=CARTESIAN_POINT('Origin',(6.99999999999997,0.,12.1));
#830=CARTESIAN_POINT('',(6.99999999999997,0.,12.1));
#831=CARTESIAN_POINT('',(7.,0.,3.5));
#832=CARTESIAN_POINT('',(6.99999999999997,-4.,12.1));
#833=CARTESIAN_POINT('',(7.,-4.,3.5));
#834=CARTESIAN_POINT('',(6.99999999999997,0.,12.1));
#835=CARTESIAN_POINT('Origin',(12.,0.,12.1000000000001));
#836=CARTESIAN_POINT('',(12.,0.,12.1000000000001));
#837=CARTESIAN_POINT('',(6.99999999999997,0.,12.1));
#838=CARTESIAN_POINT('',(12.,-4.,12.1000000000001));
#839=CARTESIAN_POINT('',(6.99999999999997,-4.,12.1));
#840=CARTESIAN_POINT('',(12.,0.,12.1000000000001));
#841=CARTESIAN_POINT('Origin',(12.,0.,-11.9));
#842=CARTESIAN_POINT('',(12.,0.,-11.9));
#843=CARTESIAN_POINT('',(12.,0.,12.1000000000001));
#844=CARTESIAN_POINT('',(12.,-4.,-11.9));
#845=CARTESIAN_POINT('',(12.,-4.,12.1000000000001));
#846=CARTESIAN_POINT('',(12.,0.,-11.9));
#847=CARTESIAN_POINT('Origin',(8.25500000000001,0.,-11.9));
#848=CARTESIAN_POINT('',(12.,0.,-11.9));
#849=CARTESIAN_POINT('',(12.,-4.,-11.9));
#850=CARTESIAN_POINT('Origin',(-12.,0.,-11.9));
#851=CARTESIAN_POINT('',(-12.,0.,-11.9));
#852=CARTESIAN_POINT('',(-1.40000000000001,0.,-11.9));
#853=CARTESIAN_POINT('',(-12.,-4.,-11.9));
#854=CARTESIAN_POINT('',(-1.40000000000001,-4.,-11.9));
#855=CARTESIAN_POINT('',(-12.,0.,-11.9));
#856=CARTESIAN_POINT('Origin',(-12.,0.,12.1));
#857=CARTESIAN_POINT('',(-12.,0.,-11.9));
#858=CARTESIAN_POINT('',(-12.,-4.,-11.9));
#859=CARTESIAN_POINT('Origin',(-1.99840144432528E-14,-4.,0.100000000000027));
#860=CARTESIAN_POINT('Origin',(-5.715,0.,-9.614));
#861=CARTESIAN_POINT('',(-6.965,-4.,-9.614));
#862=CARTESIAN_POINT('Origin',(-5.715,-4.,-9.614));
#863=CARTESIAN_POINT('',(-6.965,0.,-9.614));
#864=CARTESIAN_POINT('Origin',(-5.715,0.,-9.614));
#865=CARTESIAN_POINT('Origin',(-5.715,-4.,-9.614));
#866=UNCERTAINTY_MEASURE_WITH_UNIT(LENGTH_MEASURE(0.01),#870,
'DISTANCE_ACCURACY_VALUE',
'Maximum model space distance between geometric entities at asserted c
onnectivities');
#867=UNCERTAINTY_MEASURE_WITH_UNIT(LENGTH_MEASURE(0.01),#870,
'DISTANCE_ACCURACY_VALUE',
'Maximum model space distance between geometric entities at asserted c
onnectivities');
#868=(
GEOMETRIC_REPRESENTATION_CONTEXT(3)
GLOBAL_UNCERTAINTY_ASSIGNED_CONTEXT((#866))
GLOBAL_UNIT_ASSIGNED_CONTEXT((#870,#872,#873))
REPRESENTATION_CONTEXT('','3D')
);
#869=(
GEOMETRIC_REPRESENTATION_CONTEXT(3)
GLOBAL_UNCERTAINTY_ASSIGNED_CONTEXT((#867))
GLOBAL_UNIT_ASSIGNED_CONTEXT((#870,#872,#873))
REPRESENTATION_CONTEXT('','3D')
);
#870=(
LENGTH_UNIT()
NAMED_UNIT(*)
SI_UNIT(.MILLI.,.METRE.)
);
#871=(
LENGTH_UNIT()
NAMED_UNIT(*)
SI_UNIT($,.METRE.)
);
#872=(
NAMED_UNIT(*)
PLANE_ANGLE_UNIT()
SI_UNIT($,.RADIAN.)
);
#873=(
NAMED_UNIT(*)
SI_UNIT($,.STERADIAN.)
SOLID_ANGLE_UNIT()
);
#874=SHAPE_DEFINITION_REPRESENTATION(#875,#876);
#875=PRODUCT_DEFINITION_SHAPE('',$,#878);
#876=SHAPE_REPRESENTATION('',(#546),#868);
#877=PRODUCT_DEFINITION_CONTEXT('part definition',#882,'design');
#878=PRODUCT_DEFINITION('Billy Mic Caddy','Billy Mic Caddy v8',#879,#877);
#879=PRODUCT_DEFINITION_FORMATION('',$,#884);
#880=PRODUCT_RELATED_PRODUCT_CATEGORY('Billy Mic Caddy v8',
'Billy Mic Caddy v8',(#884));
#881=APPLICATION_PROTOCOL_DEFINITION('international standard',
'automotive_design',2009,#882);
#882=APPLICATION_CONTEXT(
'Core Data for Automotive Mechanical Design Process');
#883=PRODUCT_CONTEXT('part definition',#882,'mechanical');
#884=PRODUCT('Billy Mic Caddy','Billy Mic Caddy v8',$,(#883));
#885=PRESENTATION_STYLE_ASSIGNMENT((#886));
#886=SURFACE_STYLE_USAGE(.BOTH.,#887);
#887=SURFACE_SIDE_STYLE('',(#888));
#888=SURFACE_STYLE_FILL_AREA(#889);
#889=FILL_AREA_STYLE('Steel - Satin',(#890));
#890=FILL_AREA_STYLE_COLOUR('Steel - Satin',#891);
#891=COLOUR_RGB('Steel - Satin',0.627450980392157,0.627450980392157,0.627450980392157);
ENDSEC;
END-ISO-10303-21;
